# xmcd
#
# Track frame offsets: 
#        150
#        18092
#        44945
#        78759
#        110006
#        136358
#        152883
#
# Disc length: 2412 seconds
#
# Revision: 0
# Processed by: cddbd v1.5.2PL0 Copyright (c) Steve Scherf et al.
# Submitted via: ExactAudioCopy v0.95b3
#
DISCID=56096a07
DTITLE=Dave Brubeck Quartet  - Angel Eyes  
DYEAR=1900
DGENRE=
TTITLE0=Lets Get Away From it All
TTITLE1=Violets For Your Furs
TTITLE2=Angel Eyes
TTITLE3=Will You Still Be Mine
TTITLE4=Everything Happens to Me
TTITLE5=Little Man With a Candy Cigar
TTITLE6=The Night We Called it a Day
EXTD=
EXTT0=
EXTT1=
EXTT2=
EXTT3=
EXTT4=
EXTT5=
EXTT6=
PLAYORDER=
